<svg xmlns="http://www.w3.org/2000/svg" width="1200" height="900" viewBox="0 0 1200 900">
  <defs>
    <linearGradient id="bg" x1="0" y1="0" x2="1" y2="1">
      <stop offset="0" stop-color="#0f172a"/>
      <stop offset="1" stop-color="#0b1224"/>
    </linearGradient>
    <radialGradient id="a" cx="70%" cy="25%" r="80%">
      <stop offset="0" stop-color="#fb923c" stop-opacity="0.22"/>
      <stop offset="1" stop-color="#fb923c" stop-opacity="0"/>
    </radialGradient>
    <radialGradient id="b" cx="25%" cy="70%" r="85%">
      <stop offset="0" stop-color="#4fd1c5" stop-opacity="0.22"/>
      <stop offset="1" stop-color="#4fd1c5" stop-opacity="0"/>
    </radialGradient>
  </defs>
  <rect width="1200" height="900" fill="url(#bg)"/>
  <rect width="1200" height="900" fill="url(#a)"/>
  <rect width="1200" height="900" fill="url(#b)"/>
  <g opacity="0.16" fill="none" stroke="#ffffff" stroke-width="2">
    <path d="M150 590c150-140 340-180 520-110 180 70 320 40 480-60"/>
  </g>
  <g opacity="0.12">
    <rect x="160" y="160" width="420" height="220" rx="28" fill="#ffffff"/>
    <rect x="185" y="185" width="370" height="170" rx="22" fill="#0f172a"/>
    <circle cx="265" cy="265" r="34" fill="#ffffff" opacity="0.22"/>
    <rect x="310" y="245" width="210" height="14" rx="7" fill="#ffffff" opacity="0.22"/>
    <rect x="310" y="275" width="160" height="14" rx="7" fill="#ffffff" opacity="0.18"/>
  </g>
  <g opacity="0.12" fill="none" stroke="#ffffff" stroke-width="1.6">
    <path d="M900 730c10-14 28-23 45-23 15 0 28 5 36 12-3 9-17 24-39 29-23 5-39-5-42-18Z"/>
    <path d="M975 698c7-7 16-11 27-12"/>
    <circle cx="975" cy="718" r="3.2" fill="#ffffff" opacity="0.12" stroke="none"/>
  </g>
</svg>
