<svg xmlns="http://www.w3.org/2000/svg" width="1200" height="900" viewBox="0 0 1200 900">
  <defs>
    <linearGradient id="bg" x1="0" y1="0" x2="1" y2="1">
      <stop offset="0" stop-color="#0f172a"/>
      <stop offset="1" stop-color="#111827"/>
    </linearGradient>
    <radialGradient id="a" cx="20%" cy="30%" r="80%">
      <stop offset="0" stop-color="#60a5fa" stop-opacity="0.22"/>
      <stop offset="1" stop-color="#60a5fa" stop-opacity="0"/>
    </radialGradient>
    <radialGradient id="b" cx="75%" cy="75%" r="80%">
      <stop offset="0" stop-color="#c1121f" stop-opacity="0.20"/>
      <stop offset="1" stop-color="#c1121f" stop-opacity="0"/>
    </radialGradient>
  </defs>
  <rect width="1200" height="900" fill="url(#bg)"/>
  <rect width="1200" height="900" fill="url(#a)"/>
  <rect width="1200" height="900" fill="url(#b)"/>
  <g opacity="0.16" fill="none" stroke="#ffffff" stroke-width="2">
    <path d="M160 700c160-160 360-210 560-140 200 70 320 40 460-70"/>
    <path d="M200 620c190-140 380-180 560-120 180 60 300 30 420-70" opacity="0.65"/>
  </g>
  <g opacity="0.12">
    <circle cx="900" cy="280" r="160" fill="#ffffff"/>
    <circle cx="900" cy="280" r="110" fill="#0f172a"/>
    <circle cx="900" cy="280" r="70" fill="#ffffff" opacity="0.22"/>
  </g>
  <g opacity="0.12" fill="none" stroke="#ffffff" stroke-width="1.6">
    <path d="M300 750c10-14 28-23 45-23 15 0 28 5 36 12-3 9-17 24-39 29-23 5-39-5-42-18Z"/>
    <path d="M375 718c7-7 16-11 27-12"/>
    <circle cx="375" cy="738" r="3.2" fill="#ffffff" opacity="0.12" stroke="none"/>
  </g>
</svg>
