<svg xmlns="http://www.w3.org/2000/svg" width="1200" height="900" viewBox="0 0 1200 900">
  <defs>
    <linearGradient id="bg" x1="0" y1="0" x2="1" y2="1">
      <stop offset="0" stop-color="#0f172a"/>
      <stop offset="1" stop-color="#0b1224"/>
    </linearGradient>
    <radialGradient id="a" cx="70%" cy="20%" r="75%">
      <stop offset="0" stop-color="#4fd1c5" stop-opacity="0.28"/>
      <stop offset="1" stop-color="#4fd1c5" stop-opacity="0"/>
    </radialGradient>
    <radialGradient id="b" cx="25%" cy="85%" r="80%">
      <stop offset="0" stop-color="#fb923c" stop-opacity="0.22"/>
      <stop offset="1" stop-color="#fb923c" stop-opacity="0"/>
    </radialGradient>
  </defs>
  <rect width="1200" height="900" fill="url(#bg)"/>
  <rect width="1200" height="900" fill="url(#a)"/>
  <rect width="1200" height="900" fill="url(#b)"/>
  <g opacity="0.16" fill="none" stroke="#ffffff" stroke-width="2">
    <path d="M120 560c140-120 320-160 460-120 130 38 230 0 360-80"/>
    <path d="M160 640c180-110 360-140 510-90 150 48 270 10 410-80" opacity="0.7"/>
  </g>
  <g opacity="0.12" fill="none" stroke="#ffffff" stroke-width="1.6">
    <path d="M880 720c10-14 28-23 45-23 15 0 28 5 36 12-3 9-17 24-39 29-23 5-39-5-42-18Z"/>
    <path d="M955 688c7-7 16-11 27-12"/>
    <circle cx="955" cy="708" r="3.2" fill="#ffffff" opacity="0.12" stroke="none"/>
  </g>
  <g opacity="0.12">
    <rect x="120" y="160" width="520" height="14" rx="7" fill="#ffffff"/>
    <rect x="120" y="195" width="360" height="14" rx="7" fill="#ffffff" opacity="0.8"/>
    <rect x="120" y="230" width="290" height="14" rx="7" fill="#ffffff" opacity="0.6"/>
  </g>
</svg>
