<svg xmlns="http://www.w3.org/2000/svg" width="1200" height="900" viewBox="0 0 1200 900">
  <defs>
    <linearGradient id="bg" x1="0" y1="0" x2="1" y2="1">
      <stop offset="0" stop-color="#0f172a"/>
      <stop offset="1" stop-color="#111827"/>
    </linearGradient>
    <radialGradient id="a" cx="30%" cy="25%" r="70%">
      <stop offset="0" stop-color="#60a5fa" stop-opacity="0.30"/>
      <stop offset="1" stop-color="#60a5fa" stop-opacity="0"/>
    </radialGradient>
    <radialGradient id="b" cx="80%" cy="70%" r="75%">
      <stop offset="0" stop-color="#c1121f" stop-opacity="0.26"/>
      <stop offset="1" stop-color="#c1121f" stop-opacity="0"/>
    </radialGradient>
  </defs>
  <rect width="1200" height="900" fill="url(#bg)"/>
  <rect width="1200" height="900" fill="url(#a)"/>
  <rect width="1200" height="900" fill="url(#b)"/>
  <g opacity="0.18" fill="none" stroke="#ffffff" stroke-width="2">
    <path d="M180 650c160-160 340-190 520-90 170 96 300 70 420-20"/>
  </g>
  <g opacity="0.12" fill="none" stroke="#ffffff" stroke-width="1.6">
    <path d="M260 720c10-14 28-23 45-23 15 0 28 5 36 12-3 9-17 24-39 29-23 5-39-5-42-18Z"/>
    <path d="M335 688c7-7 16-11 27-12"/>
    <circle cx="335" cy="708" r="3.2" fill="#ffffff" opacity="0.12" stroke="none"/>
  </g>
  <g opacity="0.14">
    <circle cx="940" cy="240" r="160" fill="#ffffff"/>
    <circle cx="940" cy="240" r="110" fill="#0f172a"/>
    <circle cx="940" cy="240" r="70" fill="#ffffff" opacity="0.22"/>
  </g>
</svg>
