<svg xmlns="http://www.w3.org/2000/svg" width="1200" height="700" viewBox="0 0 1200 700">
  <defs>
    <linearGradient id="g" x1="0" y1="0" x2="1" y2="1">
      <stop offset="0" stop-color="#0f172a"/>
      <stop offset="0.6" stop-color="#111827"/>
      <stop offset="1" stop-color="#0b1224"/>
    </linearGradient>
    <radialGradient id="r1" cx="25%" cy="20%" r="70%">
      <stop offset="0" stop-color="#c1121f" stop-opacity="0.35"/>
      <stop offset="1" stop-color="#c1121f" stop-opacity="0"/>
    </radialGradient>
    <radialGradient id="r2" cx="80%" cy="10%" r="80%">
      <stop offset="0" stop-color="#60a5fa" stop-opacity="0.32"/>
      <stop offset="1" stop-color="#60a5fa" stop-opacity="0"/>
    </radialGradient>
  </defs>
  <rect width="1200" height="700" fill="url(#g)"/>
  <rect width="1200" height="700" fill="url(#r1)"/>
  <rect width="1200" height="700" fill="url(#r2)"/>
  <g opacity="0.18" fill="none" stroke="#ffffff" stroke-width="2">
    <path d="M90 520c60-86 166-140 268-140 92 0 168 30 218 72-18 54-102 140-235 168-140 36-238-26-251-100Z"/>
    <path d="M520 316c42-44 98-71 160-78"/>
    <circle cx="520" cy="440" r="10" fill="#ffffff" opacity="0.18" stroke="none"/>
  </g>
  <g opacity="0.28" fill="none" stroke="#ffffff">
    <path d="M140 170c120 0 170 80 300 80s180-60 360-60 250 90 250 90" stroke-width="2"/>
    <path d="M120 240c160 0 210 70 360 70s210-50 380-50 260 70 260 70" stroke-width="1.5" opacity="0.7"/>
  </g>
  <g opacity="0.9">
    <circle cx="980" cy="520" r="120" fill="#ffffff" opacity="0.06"/>
    <circle cx="980" cy="520" r="80" fill="#ffffff" opacity="0.05"/>
    <circle cx="980" cy="520" r="40" fill="#ffffff" opacity="0.04"/>
  </g>
  <g opacity="0.85" fill="#ffffff">
    <path d="M280 465c18-30 44-48 78-48 34 0 60 18 78 48-18 30-44 48-78 48-34 0-60-18-78-48Z" opacity="0.10"/>
    <circle cx="350" cy="455" r="10" opacity="0.08"/>
  </g>
</svg>
