<svg xmlns="http://www.w3.org/2000/svg" width="1200" height="700" viewBox="0 0 1200 700">
  <defs>
    <linearGradient id="g" x1="0" y1="0" x2="1" y2="1">
      <stop offset="0" stop-color="#0f172a"/>
      <stop offset="1" stop-color="#0b1224"/>
    </linearGradient>
    <radialGradient id="r" cx="30%" cy="30%" r="80%">
      <stop offset="0" stop-color="#60a5fa" stop-opacity="0.32"/>
      <stop offset="1" stop-color="#60a5fa" stop-opacity="0"/>
    </radialGradient>
    <radialGradient id="red" cx="85%" cy="70%" r="90%">
      <stop offset="0" stop-color="#c1121f" stop-opacity="0.28"/>
      <stop offset="1" stop-color="#c1121f" stop-opacity="0"/>
    </radialGradient>
  </defs>
  <rect width="1200" height="700" fill="url(#g)"/>
  <rect width="1200" height="700" fill="url(#r)"/>
  <rect width="1200" height="700" fill="url(#red)"/>
  <g opacity="0.22" fill="none" stroke="#ffffff" stroke-width="2">
    <path d="M120 520c120-140 300-160 420-80 110 70 250 50 460-60"/>
  </g>
  <g opacity="0.12" fill="none" stroke="#ffffff" stroke-width="1.4">
    <path d="M170 560c10-14 28-23 45-23 15 0 28 5 36 12-3 9-17 24-39 29-23 5-39-5-42-18Z"/>
    <path d="M245 528c7-7 16-11 27-12"/>
    <circle cx="245" cy="548" r="3" fill="#ffffff" opacity="0.12" stroke="none"/>
  </g>
  <g opacity="0.16">
    <circle cx="920" cy="220" r="150" fill="#ffffff"/>
    <circle cx="920" cy="220" r="110" fill="#111827"/>
    <circle cx="920" cy="220" r="80" fill="#ffffff" opacity="0.22"/>
  </g>
  <g opacity="0.14" fill="#ffffff">
    <path d="M840 490c20-34 52-54 90-54s70 20 90 54c-20 34-52 54-90 54s-70-20-90-54Z"/>
    <circle cx="920" cy="480" r="14"/>
  </g>
</svg>
