<svg xmlns="http://www.w3.org/2000/svg" width="1200" height="700" viewBox="0 0 1200 700">
  <defs>
    <linearGradient id="g" x1="0" y1="0" x2="1" y2="1">
      <stop offset="0" stop-color="#0f172a"/>
      <stop offset="1" stop-color="#111827"/>
    </linearGradient>
    <radialGradient id="c" cx="70%" cy="25%" r="80%">
      <stop offset="0" stop-color="#4fd1c5" stop-opacity="0.28"/>
      <stop offset="1" stop-color="#4fd1c5" stop-opacity="0"/>
    </radialGradient>
    <radialGradient id="o" cx="20%" cy="85%" r="90%">
      <stop offset="0" stop-color="#fb923c" stop-opacity="0.24"/>
      <stop offset="1" stop-color="#fb923c" stop-opacity="0"/>
    </radialGradient>
  </defs>
  <rect width="1200" height="700" fill="url(#g)"/>
  <rect width="1200" height="700" fill="url(#c)"/>
  <rect width="1200" height="700" fill="url(#o)"/>
  <g opacity="0.22" fill="none" stroke="#ffffff" stroke-width="1.6">
    <path d="M150 560c140-120 320-160 460-120 130 38 230 0 360-80" />
    <path d="M170 500c160-96 310-120 440-74 130 46 250 10 400-72" opacity="0.6"/>
  </g>
  <g opacity="0.14" fill="none" stroke="#ffffff" stroke-width="2">
    <path d="M820 540c60-86 166-140 268-140 92 0 168 30 218 72-18 54-102 140-235 168-140 36-238-26-251-100Z" transform="translate(-350 -40)"/>
    <path d="M880 340c42-44 98-71 160-78" transform="translate(-350 -40)"/>
    <circle cx="560" cy="400" r="10" fill="#ffffff" opacity="0.14" stroke="none"/>
  </g>
  <g opacity="0.12">
    <rect x="140" y="140" width="420" height="10" rx="5" fill="#ffffff"/>
    <rect x="140" y="170" width="320" height="10" rx="5" fill="#ffffff" opacity="0.8"/>
    <rect x="140" y="200" width="250" height="10" rx="5" fill="#ffffff" opacity="0.6"/>
  </g>
  <circle cx="970" cy="190" r="120" fill="#ffffff" opacity="0.05"/>
  <circle cx="970" cy="190" r="70" fill="#ffffff" opacity="0.04"/>
</svg>
